<svg xmlns="http://www.w3.org/2000/svg" viewBox="0 0 32 32" width="32" height="32">
	<style>
		tspan { white-space:pre }
		.shp0 { fill: #ffffff } 
	</style>
	<path id="Layer" fill-rule="evenodd" class="shp0" d="M12.28 31.6C12.28 31.82 12.46 32 12.68 32L18.42 32C18.65 32 18.83 31.82 18.83 31.6L18.83 15.87L22.99 15.87C23.2 15.87 23.38 15.71 23.39 15.5L23.79 10.77C23.8 10.71 23.79 10.66 23.77 10.6C23.76 10.55 23.73 10.5 23.69 10.46C23.65 10.42 23.61 10.39 23.55 10.37C23.5 10.34 23.45 10.33 23.39 10.33L18.83 10.33L18.83 6.97C18.83 6.18 19.47 5.54 20.25 5.54L23.46 5.54C23.69 5.54 23.87 5.36 23.87 5.14L23.87 0.4C23.87 0.35 23.86 0.3 23.84 0.25C23.82 0.2 23.79 0.16 23.75 0.12C23.71 0.08 23.67 0.05 23.62 0.03C23.57 0.01 23.52 0 23.46 0L18.04 0C17.28 0 16.53 0.15 15.83 0.44C15.14 0.73 14.5 1.15 13.96 1.69C13.43 2.22 13.01 2.86 12.72 3.56C12.43 4.26 12.28 5.01 12.28 5.76L12.28 10.33L9.4 10.33C9.35 10.33 9.3 10.34 9.25 10.36C9.2 10.38 9.16 10.41 9.12 10.45C9.08 10.49 9.05 10.53 9.03 10.58C9.01 10.63 9 10.68 9 10.73L9 15.47C9 15.69 9.18 15.87 9.4 15.87L12.28 15.87L12.28 31.6Z" />
</svg>