<svg xmlns="http://www.w3.org/2000/svg" viewBox="0 0 32 32" width="32" height="32">
	<style>
		tspan { white-space:pre }
		.shp0 { fill: #ffffff } 
	</style>
	<path id="Layer" fill-rule="evenodd" class="shp0" d="M32 22.36C32 23.63 31.75 24.88 31.27 26.05C30.78 27.22 30.07 28.28 29.18 29.18C28.28 30.07 27.22 30.78 26.05 31.27C24.88 31.75 23.63 32 22.36 32L9.64 32C4.32 32 0 27.68 0 22.36L0 9.64C0 4.32 4.32 0 9.64 0L22.36 0C27.68 0 32 4.32 32 9.64L32 22.36ZM28.98 22.36L28.98 9.64C28.98 8.77 28.81 7.91 28.48 7.1C28.14 6.3 27.66 5.57 27.04 4.96C26.43 4.34 25.7 3.85 24.89 3.52C24.09 3.19 23.23 3.02 22.36 3.02L9.64 3.02C8.77 3.02 7.91 3.19 7.11 3.52C6.3 3.85 5.57 4.34 4.96 4.96C4.34 5.57 3.86 6.3 3.52 7.1C3.19 7.91 3.02 8.77 3.02 9.64L3.02 22.36C3.02 23.23 3.19 24.09 3.52 24.89C3.86 25.7 4.34 26.43 4.96 27.04C5.57 27.66 6.3 28.14 7.11 28.48C7.91 28.81 8.77 28.98 9.64 28.98L22.36 28.98C23.23 28.98 24.09 28.81 24.89 28.48C25.7 28.14 26.43 27.66 27.04 27.04C27.66 26.43 28.14 25.7 28.48 24.89C28.81 24.09 28.98 23.23 28.98 22.36ZM16.05 8.3C20.41 8.3 23.96 11.85 23.96 16.21C23.96 20.56 20.41 24.11 16.05 24.11C11.7 24.11 8.15 20.56 8.15 16.21C8.15 11.85 11.7 8.3 16.05 8.3ZM16.05 21.27C16.72 21.27 17.38 21.14 17.99 20.88C18.6 20.63 19.16 20.25 19.63 19.78C20.1 19.31 20.47 18.76 20.73 18.14C20.98 17.53 21.12 16.87 21.12 16.21C21.12 15.54 20.98 14.88 20.73 14.27C20.47 13.66 20.1 13.1 19.63 12.63C19.16 12.16 18.6 11.79 17.99 11.53C17.38 11.28 16.72 11.14 16.05 11.14C15.39 11.14 14.73 11.28 14.12 11.53C13.5 11.79 12.95 12.16 12.48 12.63C12.01 13.1 11.63 13.66 11.38 14.27C11.12 14.88 10.99 15.54 10.99 16.21C10.99 16.87 11.12 17.53 11.38 18.14C11.63 18.76 12.01 19.31 12.48 19.78C12.95 20.25 13.5 20.63 14.12 20.88C14.73 21.14 15.39 21.27 16.05 21.27ZM24.42 5.89C24.92 5.89 25.4 6.09 25.75 6.44C26.1 6.8 26.3 7.27 26.3 7.77C26.3 8.27 26.1 8.75 25.75 9.1C25.4 9.46 24.92 9.65 24.42 9.65C23.92 9.65 23.44 9.46 23.09 9.1C22.74 8.75 22.54 8.27 22.54 7.77C22.54 7.27 22.74 6.8 23.09 6.44C23.44 6.09 23.92 5.89 24.42 5.89L24.42 5.89Z" />
</svg>