<svg xmlns="http://www.w3.org/2000/svg" viewBox="0 0 32 32" width="32" height="32">
	<style>
		tspan { white-space:pre }
		.shp0 { fill: #ffffff } 
	</style>
	<path id="Layer" fill-rule="evenodd" class="shp0" d="M31.88 6.16C30.86 6.62 29.74 6.9 28.65 7.08C29.17 7 29.94 6.05 30.24 5.67C30.71 5.09 31.1 4.43 31.32 3.71C31.35 3.66 31.37 3.59 31.31 3.54C31.24 3.52 31.2 3.53 31.14 3.56C30.84 3.72 30.53 3.87 30.22 4.01C29.91 4.16 29.59 4.29 29.27 4.41C28.95 4.53 28.62 4.65 28.29 4.75C27.97 4.85 27.64 4.95 27.3 5.03C27.28 5.03 27.26 5.04 27.23 5.04C27.21 5.04 27.18 5.04 27.16 5.03C27.14 5.02 27.11 5.01 27.09 5C27.07 4.99 27.05 4.97 27.04 4.96C27.01 4.93 26.99 4.9 26.96 4.87C26.93 4.84 26.9 4.81 26.88 4.78C26.85 4.75 26.82 4.72 26.79 4.69C26.76 4.67 26.73 4.64 26.7 4.61C26.56 4.49 26.42 4.38 26.27 4.27C26.13 4.16 25.97 4.06 25.82 3.97C25.66 3.87 25.5 3.78 25.34 3.7C25.18 3.62 25.01 3.54 24.84 3.47C24.62 3.38 24.39 3.3 24.15 3.24C23.92 3.17 23.68 3.12 23.44 3.08C23.2 3.04 22.96 3.02 22.72 3.01C22.47 3 22.23 3 21.99 3.01C21.75 3.03 21.52 3.06 21.29 3.1C21.05 3.14 20.82 3.19 20.6 3.25C20.37 3.32 20.14 3.39 19.93 3.48C19.71 3.57 19.49 3.67 19.28 3.78C19.07 3.89 18.87 4.01 18.67 4.14C18.47 4.27 18.28 4.41 18.1 4.56C17.92 4.71 17.74 4.87 17.57 5.03C17.41 5.2 17.25 5.38 17.1 5.56C16.95 5.75 16.8 5.95 16.67 6.16C16.54 6.36 16.41 6.57 16.3 6.79C16.19 7.01 16.1 7.24 16.01 7.47C15.93 7.7 15.86 7.93 15.8 8.17C15.57 9.09 15.59 10 15.73 10.93C15.75 11.08 15.73 11.1 15.6 11.08C10.32 10.3 5.95 8.41 2.4 4.37C2.25 4.19 2.16 4.19 2.04 4.38C0.48 6.71 1.24 10.45 3.18 12.29C3.44 12.53 3.7 12.78 3.99 13C3.88 13.02 2.59 12.88 1.44 12.29C1.29 12.19 1.21 12.25 1.2 12.42C1.19 12.48 1.19 12.55 1.19 12.61C1.19 12.67 1.2 12.74 1.2 12.8C1.2 12.86 1.21 12.93 1.21 12.99C1.22 13.05 1.23 13.11 1.24 13.18C1.54 15.54 3.17 17.72 5.41 18.57C5.67 18.68 5.97 18.78 6.25 18.83C5.74 18.94 5.22 19.02 3.76 18.91C3.58 18.87 3.51 18.96 3.58 19.14C4.67 22.13 7.05 23.02 8.82 23.53C9.06 23.57 9.3 23.57 9.54 23.63C9.52 23.65 9.51 23.65 9.49 23.67C8.9 24.57 6.86 25.24 5.91 25.57C4.18 26.17 2.3 26.45 0.47 26.27C0.18 26.22 0.11 26.23 0.04 26.27C-0.04 26.32 0.03 26.39 0.12 26.46C0.49 26.71 0.87 26.92 1.25 27.13C1.54 27.29 1.83 27.43 2.13 27.57C2.43 27.71 2.73 27.84 3.03 27.96C3.33 28.08 3.64 28.19 3.95 28.3C4.26 28.4 4.57 28.5 4.89 28.59C11.43 30.39 18.79 29.07 23.7 24.19C27.55 20.36 28.9 15.08 28.9 9.79C28.9 9.58 29.15 9.47 29.29 9.36C30.3 8.61 31.09 7.71 31.84 6.7C32.01 6.47 32 6.27 32 6.19L32 6.16C32 6.08 32.01 6.1 31.88 6.16Z" />
	<path id="Forma 1" class="shp0" d="M190 -13" />
</svg>